<svg width="31" height="31" viewBox="0 0 31 31" fill="none" xmlns="http://www.w3.org/2000/svg">
<rect x="1.29492" y="1.29492" width="28" height="28" rx="7" stroke="#6044B5" stroke-width="2"/>
<path d="M13.3949 7.29492C13.3949 7.29492 13.3949 7.29492 13.3949 7.29492C10.4324 8.28867 8.29492 11.0824 8.29492 14.3824C8.29492 18.5262 11.6512 21.8824 15.7949 21.8824C18.3881 21.8824 20.6686 20.5625 22.0088 18.5596C22.4656 17.8769 21.7608 17.1207 20.9414 17.1786C20.7897 17.1893 20.6367 17.1949 20.4824 17.1949C16.3387 17.1949 12.9824 13.8387 12.9824 9.69492C12.9824 8.85117 13.1324 8.04492 13.3949 7.29492C13.3949 7.29492 13.3949 7.29492 13.3949 7.29492V7.29492Z" fill="#6044B5"/>
</svg>
