<svg width="30" height="30" viewBox="0 0 30 30" fill="none" xmlns="http://www.w3.org/2000/svg">
<rect x="1" y="1" width="28" height="28" rx="7" stroke="#9E8BEB" stroke-width="2"/>
<path d="M15.295 8C14.7844 8 14.3831 8.40123 14.3831 8.91188C14.3831 9.42253 14.7844 9.82375 15.295 9.82375C15.8057 9.82375 16.2069 9.42253 16.2069 8.91188C16.2069 8.40123 15.8057 8 15.295 8ZM10.7356 9.82375C10.225 9.82375 9.82375 10.225 9.82375 10.7356C9.82375 11.2463 10.225 11.6475 10.7356 11.6475C11.2463 11.6475 11.6475 11.2463 11.6475 10.7356C11.6475 10.225 11.2463 9.82375 10.7356 9.82375ZM19.8544 9.82375C19.3437 9.82375 18.9425 10.225 18.9425 10.7356C18.9425 11.2463 19.3437 11.6475 19.8544 11.6475C20.365 11.6475 20.7663 11.2463 20.7663 10.7356C20.7663 10.225 20.365 9.82375 19.8544 9.82375ZM15.295 11.6475C13.2889 11.6475 11.6475 13.2889 11.6475 15.295C11.6475 17.3011 13.2889 18.9425 15.295 18.9425C17.3011 18.9425 18.9425 17.3011 18.9425 15.295C18.9425 13.2889 17.3011 11.6475 15.295 11.6475ZM8.91188 14.3831C8.40123 14.3831 8 14.7844 8 15.295C8 15.8057 8.40123 16.2069 8.91188 16.2069C9.42253 16.2069 9.82375 15.8057 9.82375 15.295C9.82375 14.7844 9.42253 14.3831 8.91188 14.3831ZM21.6781 14.3831C21.1675 14.3831 20.7663 14.7844 20.7663 15.295C20.7663 15.8057 21.1675 16.2069 21.6781 16.2069C22.1888 16.2069 22.59 15.8057 22.59 15.295C22.59 14.7844 22.1888 14.3831 21.6781 14.3831ZM10.7356 18.9425C10.225 18.9425 9.82375 19.3437 9.82375 19.8544C9.82375 20.365 10.225 20.7663 10.7356 20.7663C11.2463 20.7663 11.6475 20.365 11.6475 19.8544C11.6475 19.3437 11.2463 18.9425 10.7356 18.9425ZM19.8544 18.9425C19.3437 18.9425 18.9425 19.3437 18.9425 19.8544C18.9425 20.365 19.3437 20.7663 19.8544 20.7663C20.365 20.7663 20.7663 20.365 20.7663 19.8544C20.7663 19.3437 20.365 18.9425 19.8544 18.9425ZM15.295 20.7663C14.7844 20.7663 14.3831 21.1675 14.3831 21.6781C14.3831 22.1888 14.7844 22.59 15.295 22.59C15.8057 22.59 16.2069 22.1888 16.2069 21.6781C16.2069 21.1675 15.8057 20.7663 15.295 20.7663Z" fill="#9E8BEB"/>
</svg>
