<svg width="401" height="65" viewBox="0 0 401 65" fill="none" xmlns="http://www.w3.org/2000/svg">
<path d="M227.438 0.125C226.646 3.5 225.833 7.04167 225 10.75C224.208 14.4583 223.479 18.1042 222.812 21.6875C222.146 25.2292 221.583 28.4792 221.125 31.4375H203.625L202.75 30.0625C203.5 27.0208 204.458 23.7917 205.625 20.375C206.833 16.9167 208.125 13.4583 209.5 10C210.917 6.5 212.333 3.20833 213.75 0.125H227.438ZM198.25 0.125C197.458 3.5 196.646 7.04167 195.812 10.75C195.021 14.4583 194.292 18.1042 193.625 21.6875C192.958 25.2292 192.396 28.4792 191.938 31.4375H174.438L173.562 30.0625C174.312 27.0208 175.271 23.7917 176.438 20.375C177.646 16.9167 178.938 13.4583 180.312 10C181.729 6.5 183.146 3.20833 184.562 0.125H198.25Z" />
</svg>
