<svg width="21" height="24" viewBox="0 0 21 24" xmlns="http://www.w3.org/2000/svg">
<path d="M12.6687 11.9056L20.0145 3.74777C20.3362 3.38969 20.5169 2.90404 20.5169 2.39765C20.5169 1.89125 20.3362 1.4056 20.0145 1.04752C19.6928 0.689446 19.2565 0.488281 18.8016 0.488281C18.3466 0.488281 17.9103 0.689446 17.5887 1.04752L10.2599 9.22433L2.93116 1.04752C2.60947 0.689446 2.17317 0.488281 1.71824 0.488281C1.26331 0.488281 0.827008 0.689446 0.505322 1.04752C0.183637 1.4056 0.00291545 1.89125 0.00291544 2.39765C0.00291544 2.90404 0.183637 3.38969 0.505322 3.74777L7.85116 11.9056L0.505322 20.0634C0.345203 20.2401 0.218113 20.4505 0.131383 20.6822C0.0446532 20.9139 0 21.1624 0 21.4135C0 21.6645 0.0446532 21.9131 0.131383 22.1448C0.218113 22.3765 0.345203 22.5868 0.505322 22.7636C0.664134 22.9418 0.853077 23.0833 1.06125 23.1798C1.26943 23.2764 1.49272 23.3261 1.71824 23.3261C1.94376 23.3261 2.16705 23.2764 2.37522 23.1798C2.5834 23.0833 2.77234 22.9418 2.93116 22.7636L10.2599 14.5868L17.5887 22.7636C17.7475 22.9418 17.9364 23.0833 18.1446 23.1798C18.3528 23.2764 18.5761 23.3261 18.8016 23.3261C19.0271 23.3261 19.2504 23.2764 19.4586 23.1798C19.6667 23.0833 19.8557 22.9418 20.0145 22.7636C20.1746 22.5868 20.3017 22.3765 20.3884 22.1448C20.4752 21.9131 20.5198 21.6645 20.5198 21.4135C20.5198 21.1624 20.4752 20.9139 20.3884 20.6822C20.3017 20.4505 20.1746 20.2401 20.0145 20.0634L12.6687 11.9056Z" />
</svg>
